<svg id="visual" viewBox="0 0 2560 1440" width="2560" height="1440" xmlns="http://www.w3.org/2000/svg" xmlns:xlink="http://www.w3.org/1999/xlink" version="1.1"><rect x="0" y="0" width="2560" height="1440" fill="#d1d1d1"></rect><defs><linearGradient id="grad1_0" x1="43.8%" y1="0%" x2="100%" y2="100%"><stop offset="14.444444444444446%" stop-color="#d1d1d1" stop-opacity="1"></stop><stop offset="85.55555555555554%" stop-color="#d1d1d1" stop-opacity="1"></stop></linearGradient></defs><defs><linearGradient id="grad2_0" x1="0%" y1="0%" x2="56.3%" y2="100%"><stop offset="14.444444444444446%" stop-color="#d1d1d1" stop-opacity="1"></stop><stop offset="85.55555555555554%" stop-color="#d1d1d1" stop-opacity="1"></stop></linearGradient></defs><g transform="translate(2560, 0)"><path d="M0 720C-81 609.4 -162 498.9 -252.5 437.3C-343 375.8 -442.9 363.2 -517 298.5C-591.2 233.8 -639.6 116.9 -688 0L0 0Z" fill="#232323"></path></g><g transform="translate(0, 1440)"><path d="M0 -720C35.8 -554 71.5 -387.9 199.5 -345.5C327.5 -303.2 547.6 -384.5 601.9 -347.5C656.2 -310.5 544.6 -155.3 433 0L0 0Z" fill="#232323"></path></g></svg>