<svg id="visual" viewBox="0 0 2560 1440" width="2560" height="1440" xmlns="http://www.w3.org/2000/svg" xmlns:xlink="http://www.w3.org/1999/xlink" version="1.1"><g><g transform="translate(1095 92)"><path d="M175.3 6.8C175.3 104.2 87.6 208.3 -7.7 208.3C-103.1 208.3 -206.3 104.2 -206.3 6.8C-206.3 -90.5 -103.1 -181.1 -7.7 -181.1C87.6 -181.1 175.3 -90.5 175.3 6.8Z" fill="#232323"></path></g><g transform="translate(1400 1238)"><path d="M179.2 6.8C179.2 90.1 89.6 180.2 -4.3 180.2C-98.1 180.2 -196.3 90.1 -196.3 6.8C-196.3 -76.5 -98.1 -152.9 -4.3 -152.9C89.6 -152.9 179.2 -76.5 179.2 6.8Z" fill="#232323"></path></g><g transform="translate(2414 368)"><path d="M191.2 -3.1C191.2 94.2 95.6 188.4 0.5 188.4C-94.7 188.4 -189.3 94.2 -189.3 -3.1C-189.3 -100.5 -94.7 -200.9 0.5 -200.9C95.6 -200.9 191.2 -100.5 191.2 -3.1Z" fill="#232323"></path></g><g transform="translate(2469 1144)"><path d="M68.2 -0.8C68.2 38.7 34.1 77.5 -2.4 77.5C-38.9 77.5 -77.9 38.7 -77.9 -0.8C-77.9 -40.4 -38.9 -80.7 -2.4 -80.7C34.1 -80.7 68.2 -40.4 68.2 -0.8Z" fill="#232323"></path></g></g></svg>