<svg id="visual" viewBox="0 0 2560 1440" width="2560" height="1440" xmlns="http://www.w3.org/2000/svg" xmlns:xlink="http://www.w3.org/1999/xlink" version="1.1"><rect x="0" y="0" width="2560" height="1440" fill="#d1d1d1"></rect><path d="M0 591L28.5 628.2C57 665.3 114 739.7 170.8 793C227.7 846.3 284.3 878.7 341.2 882.7C398 886.7 455 862.3 512 872.3C569 882.3 626 926.7 682.8 931.2C739.7 935.7 796.3 900.3 853.2 889C910 877.7 967 890.3 1024 897.2C1081 904 1138 905 1194.8 853.5C1251.7 802 1308.3 698 1365.2 715.7C1422 733.3 1479 872.7 1536 920.7C1593 968.7 1650 925.3 1706.8 874.3C1763.7 823.3 1820.3 764.7 1877.2 774.8C1934 785 1991 864 2048 893.7C2105 923.3 2162 903.7 2218.8 889.2C2275.7 874.7 2332.3 865.3 2389.2 827.3C2446 789.3 2503 722.7 2531.5 689.3L2560 656L2560 1441L2531.5 1441C2503 1441 2446 1441 2389.2 1441C2332.3 1441 2275.7 1441 2218.8 1441C2162 1441 2105 1441 2048 1441C1991 1441 1934 1441 1877.2 1441C1820.3 1441 1763.7 1441 1706.8 1441C1650 1441 1593 1441 1536 1441C1479 1441 1422 1441 1365.2 1441C1308.3 1441 1251.7 1441 1194.8 1441C1138 1441 1081 1441 1024 1441C967 1441 910 1441 853.2 1441C796.3 1441 739.7 1441 682.8 1441C626 1441 569 1441 512 1441C455 1441 398 1441 341.2 1441C284.3 1441 227.7 1441 170.8 1441C114 1441 57 1441 28.5 1441L0 1441Z" fill="#000000"></path><path d="M0 928L28.5 927.8C57 927.7 114 927.3 170.8 926C227.7 924.7 284.3 922.3 341.2 933.3C398 944.3 455 968.7 512 952.5C569 936.3 626 879.7 682.8 893.7C739.7 907.7 796.3 992.3 853.2 1030.3C910 1068.3 967 1059.7 1024 1062.5C1081 1065.3 1138 1079.7 1194.8 1086.2C1251.7 1092.7 1308.3 1091.3 1365.2 1074C1422 1056.7 1479 1023.3 1536 999.5C1593 975.7 1650 961.3 1706.8 980.5C1763.7 999.7 1820.3 1052.3 1877.2 1073.5C1934 1094.7 1991 1084.3 2048 1060.7C2105 1037 2162 1000 2218.8 973.7C2275.7 947.3 2332.3 931.7 2389.2 903.7C2446 875.7 2503 835.3 2531.5 815.2L2560 795L2560 1441L2531.5 1441C2503 1441 2446 1441 2389.2 1441C2332.3 1441 2275.7 1441 2218.8 1441C2162 1441 2105 1441 2048 1441C1991 1441 1934 1441 1877.2 1441C1820.3 1441 1763.7 1441 1706.8 1441C1650 1441 1593 1441 1536 1441C1479 1441 1422 1441 1365.2 1441C1308.3 1441 1251.7 1441 1194.8 1441C1138 1441 1081 1441 1024 1441C967 1441 910 1441 853.2 1441C796.3 1441 739.7 1441 682.8 1441C626 1441 569 1441 512 1441C455 1441 398 1441 341.2 1441C284.3 1441 227.7 1441 170.8 1441C114 1441 57 1441 28.5 1441L0 1441Z" fill="#191919"></path><path d="M0 879L28.5 923.5C57 968 114 1057 170.8 1059.7C227.7 1062.3 284.3 978.7 341.2 950.3C398 922 455 949 512 966C569 983 626 990 682.8 992C739.7 994 796.3 991 853.2 1016.2C910 1041.3 967 1094.7 1024 1094C1081 1093.3 1138 1038.7 1194.8 1016.7C1251.7 994.7 1308.3 1005.3 1365.2 1014C1422 1022.7 1479 1029.3 1536 1022C1593 1014.7 1650 993.3 1706.8 970.8C1763.7 948.3 1820.3 924.7 1877.2 950.2C1934 975.7 1991 1050.3 2048 1068C2105 1085.7 2162 1046.3 2218.8 1041.7C2275.7 1037 2332.3 1067 2389.2 1051C2446 1035 2503 973 2531.5 942L2560 911L2560 1441L2531.5 1441C2503 1441 2446 1441 2389.2 1441C2332.3 1441 2275.7 1441 2218.8 1441C2162 1441 2105 1441 2048 1441C1991 1441 1934 1441 1877.2 1441C1820.3 1441 1763.7 1441 1706.8 1441C1650 1441 1593 1441 1536 1441C1479 1441 1422 1441 1365.2 1441C1308.3 1441 1251.7 1441 1194.8 1441C1138 1441 1081 1441 1024 1441C967 1441 910 1441 853.2 1441C796.3 1441 739.7 1441 682.8 1441C626 1441 569 1441 512 1441C455 1441 398 1441 341.2 1441C284.3 1441 227.7 1441 170.8 1441C114 1441 57 1441 28.5 1441L0 1441Z" fill="#232323"></path><path d="M0 1129L28.5 1130.7C57 1132.3 114 1135.7 170.8 1141.8C227.7 1148 284.3 1157 341.2 1142C398 1127 455 1088 512 1093.5C569 1099 626 1149 682.8 1166.3C739.7 1183.7 796.3 1168.3 853.2 1140.3C910 1112.3 967 1071.7 1024 1089.2C1081 1106.7 1138 1182.3 1194.8 1194.8C1251.7 1207.3 1308.3 1156.7 1365.2 1159.2C1422 1161.7 1479 1217.3 1536 1206C1593 1194.7 1650 1116.3 1706.8 1078.5C1763.7 1040.7 1820.3 1043.3 1877.2 1046.8C1934 1050.3 1991 1054.7 2048 1069.5C2105 1084.3 2162 1109.7 2218.8 1112.7C2275.7 1115.7 2332.3 1096.3 2389.2 1114.8C2446 1133.3 2503 1189.7 2531.5 1217.8L2560 1246L2560 1441L2531.5 1441C2503 1441 2446 1441 2389.2 1441C2332.3 1441 2275.7 1441 2218.8 1441C2162 1441 2105 1441 2048 1441C1991 1441 1934 1441 1877.2 1441C1820.3 1441 1763.7 1441 1706.8 1441C1650 1441 1593 1441 1536 1441C1479 1441 1422 1441 1365.2 1441C1308.3 1441 1251.7 1441 1194.8 1441C1138 1441 1081 1441 1024 1441C967 1441 910 1441 853.2 1441C796.3 1441 739.7 1441 682.8 1441C626 1441 569 1441 512 1441C455 1441 398 1441 341.2 1441C284.3 1441 227.7 1441 170.8 1441C114 1441 57 1441 28.5 1441L0 1441Z" fill="#191919"></path><path d="M0 1189L28.5 1216.7C57 1244.3 114 1299.7 170.8 1299.7C227.7 1299.7 284.3 1244.3 341.2 1235.7C398 1227 455 1265 512 1271.2C569 1277.3 626 1251.7 682.8 1246.7C739.7 1241.7 796.3 1257.3 853.2 1262.3C910 1267.3 967 1261.7 1024 1253.2C1081 1244.7 1138 1233.3 1194.8 1248.2C1251.7 1263 1308.3 1304 1365.2 1301C1422 1298 1479 1251 1536 1226.2C1593 1201.3 1650 1198.7 1706.8 1193.2C1763.7 1187.7 1820.3 1179.3 1877.2 1200.2C1934 1221 1991 1271 2048 1283.3C2105 1295.7 2162 1270.3 2218.8 1267C2275.7 1263.7 2332.3 1282.3 2389.2 1292.2C2446 1302 2503 1303 2531.5 1303.5L2560 1304L2560 1441L2531.5 1441C2503 1441 2446 1441 2389.2 1441C2332.3 1441 2275.7 1441 2218.8 1441C2162 1441 2105 1441 2048 1441C1991 1441 1934 1441 1877.2 1441C1820.3 1441 1763.7 1441 1706.8 1441C1650 1441 1593 1441 1536 1441C1479 1441 1422 1441 1365.2 1441C1308.3 1441 1251.7 1441 1194.8 1441C1138 1441 1081 1441 1024 1441C967 1441 910 1441 853.2 1441C796.3 1441 739.7 1441 682.8 1441C626 1441 569 1441 512 1441C455 1441 398 1441 341.2 1441C284.3 1441 227.7 1441 170.8 1441C114 1441 57 1441 28.5 1441L0 1441Z" fill="#000000"></path></svg>